# xmcd CD database file
#
# Track frame offsets:
#	150
#	12209
#	23163
#	35280
#	53247
#	66189
#	80368
#	100885
#	111389
#	125606
#	138023
#	148602
#	158431
#	170548
#	182027
#	197858
#	218300
#	228017
#	241332
#	254499
#	266841
#	283608
#	293400
#	310879
#
# Disc length: 4349 seconds
#
# Revision: 2
# Processed by: cddbd v1.4PL0 Copyright (c) Steve Scherf et al.
# Submitted via: CDex 1.40Release
#
DISCID=4a10fb18
DTITLE=Creedence Clearwater Revival - The best of C.C.R
DYEAR=1900
DGENRE=Blues
TTITLE0=Have you ever seen the rain
TTITLE1=Who'll stop the rain
TTITLE2=Hey tonight
TTITLE3=Someday never comes
TTITLE4=Sweet hitch - hiker
TTITLE5=Proud mary
TTITLE6=Susie Q
TTITLE7=Bad moon rising
TTITLE8=Lodi
TTITLE9=Down on the corner
TTITLE10=Fortunate son
TTITLE11=Travelin' band
TTITLE12=Up around the bend
TTITLE13=Looking' out of my back door
TTITLE14=Long as i can see the light
TTITLE15=I put a spell on you
TTITLE16=Molina
TTITLE17=Cotton fields
TTITLE18=It come out of the sky
TTITLE19=Good golly miss molly
TTITLE20=(Wish i could) hide away
TTITLE21=Don't look now (it ain't you or me)
TTITLE22=It's just a thought
TTITLE23=Looking for a reason
EXTD=ID3G: 0
EXTT0=
EXTT1=
EXTT2=
EXTT3=
EXTT4=
EXTT5=
EXTT6=
EXTT7=
EXTT8=
EXTT9=
EXTT10=
EXTT11=
EXTT12=
EXTT13=
EXTT14=
EXTT15=
EXTT16=
EXTT17=
EXTT18=
EXTT19=
EXTT20=
EXTT21=
EXTT22=
EXTT23=
PLAYORDER=
